# MagicaVoxel @ Ephtracy

# group
o 

# material
mtllib amfleet-door.mtl
usemtl palette

# normals
vn -1 0 0
vn 1 0 0
vn 0 0 1
vn 0 0 -1
vn 0 -1 0
vn 0 1 0

# texcoords
vt 0.310547 0.5
vt 0.978516 0.5
vt 0.994141 0.5

# verts
v 0 0 -0.1
v 0 0 -0.5
v 0 0.4 -0.4
v 0 0.4 -0.5
v 0 0.6 -0.3
v 0 0.6 -0.4
v 0 0.9 0
v 0 0.9 -0.1
v 0 1 -0.2
v 0 1 -0.3
v 0 2.6 -0.2
v 0 2.6 -0.3
v 0 2.8 0
v 0 2.8 -0.1
v 0 3.1 -0.1
v 0 3.1 -0.3
v 0.2 2.1 0
v 0.2 2.1 -0.1
v 0.2 2.6 0
v 0.2 2.6 -0.1
v 0.6 1.6 0
v 0.6 1.6 -0.1
v 0.6 1.7 0
v 0.6 1.7 -0.1
v 0.8 1.5 0
v 0.8 1.5 -0.1
v 0.8 1.6 0
v 0.8 1.6 -0.1
v 0.9 2.2 0
v 0.9 2.2 -0.1
v 0.9 2.5 0
v 0.9 2.5 -0.1
v 1.1 0.5 -0.1
v 1.1 0.5 -0.2
v 1.1 0.9 0
v 1.1 0.9 -0.1
v 1.1 0.9 -0.2
v 1.1 2.7 -0.1
v 1.1 2.7 -0.2
v 1.1 2.8 0
v 1.1 2.8 -0.1
v 1.1 3 -0.1
v 1.1 3 -0.2
v 0.1 0.5 -0.1
v 0.1 0.5 -0.2
v 0.1 0.9 0
v 0.1 0.9 -0.1
v 0.1 0.9 -0.2
v 0.1 2.7 -0.1
v 0.1 2.7 -0.2
v 0.1 2.8 0
v 0.1 2.8 -0.1
v 0.1 3 -0.1
v 0.1 3 -0.2
v 0.3 2.2 0
v 0.3 2.2 -0.1
v 0.3 2.5 0
v 0.3 2.5 -0.1
v 1 1.5 0
v 1 1.5 -0.1
v 1 1.7 0
v 1 1.7 -0.1
v 1 2.1 0
v 1 2.1 -0.1
v 1 2.6 0
v 1 2.6 -0.1
v 1.2 0 -0.1
v 1.2 0 -0.5
v 1.2 0.4 -0.4
v 1.2 0.4 -0.5
v 1.2 0.6 -0.3
v 1.2 0.6 -0.4
v 1.2 0.9 0
v 1.2 0.9 -0.1
v 1.2 1 -0.2
v 1.2 1 -0.3
v 1.2 2.6 -0.2
v 1.2 2.6 -0.3
v 1.2 2.8 0
v 1.2 2.8 -0.1
v 1.2 3.1 -0.1
v 1.2 3.1 -0.3
v 0 0.9 0
v 0 2.8 0
v 0.1 0.9 0
v 0.1 2.8 0
v 0.2 2.1 0
v 0.2 2.6 0
v 0.3 2.2 0
v 0.3 2.5 0
v 0.6 1.6 0
v 0.6 1.7 0
v 0.8 1.5 0
v 0.8 1.6 0
v 0.9 2.2 0
v 0.9 2.5 0
v 1 1.5 0
v 1 1.7 0
v 1 2.1 0
v 1 2.6 0
v 1.1 0.9 0
v 1.1 2.8 0
v 1.2 0.9 0
v 1.2 2.8 0
v 0 0 -0.1
v 0 0.9 -0.1
v 0 2.8 -0.1
v 0 3.1 -0.1
v 0.1 0.5 -0.1
v 0.1 0.9 -0.1
v 0.1 2.7 -0.1
v 0.1 2.8 -0.1
v 0.1 3 -0.1
v 0.2 2.1 -0.1
v 0.2 2.6 -0.1
v 0.3 2.2 -0.1
v 0.3 2.5 -0.1
v 0.6 1.6 -0.1
v 0.6 1.7 -0.1
v 0.8 1.5 -0.1
v 0.8 1.6 -0.1
v 0.9 2.2 -0.1
v 0.9 2.5 -0.1
v 1 1.5 -0.1
v 1 1.7 -0.1
v 1 2.1 -0.1
v 1 2.6 -0.1
v 1.1 0.5 -0.1
v 1.1 0.9 -0.1
v 1.1 2.7 -0.1
v 1.1 2.8 -0.1
v 1.1 3 -0.1
v 1.2 0 -0.1
v 1.2 0.9 -0.1
v 1.2 2.8 -0.1
v 1.2 3.1 -0.1
v 0.1 0.5 -0.2
v 0.1 0.9 -0.2
v 0.1 2.7 -0.2
v 0.1 3 -0.2
v 1.1 0.5 -0.2
v 1.1 0.9 -0.2
v 1.1 2.7 -0.2
v 1.1 3 -0.2
v 0 1 -0.2
v 0 2.6 -0.2
v 0.1 1 -0.2
v 0.1 2.6 -0.2
v 0.2 2.1 -0.2
v 0.2 2.6 -0.2
v 0.3 2.2 -0.2
v 0.3 2.5 -0.2
v 0.9 2.2 -0.2
v 0.9 2.5 -0.2
v 1 2.1 -0.2
v 1 2.6 -0.2
v 1.1 1 -0.2
v 1.1 2.6 -0.2
v 1.2 1 -0.2
v 1.2 2.6 -0.2
v 0 0.6 -0.3
v 0 1 -0.3
v 0 2.6 -0.3
v 0 3.1 -0.3
v 0.1 0.6 -0.3
v 0.1 1 -0.3
v 0.1 2.6 -0.3
v 0.1 3 -0.3
v 1.1 0.6 -0.3
v 1.1 1 -0.3
v 1.1 2.6 -0.3
v 1.1 3 -0.3
v 1.2 0.6 -0.3
v 1.2 1 -0.3
v 1.2 2.6 -0.3
v 1.2 3.1 -0.3
v 0 0.4 -0.4
v 0 0.6 -0.4
v 0.1 0.4 -0.4
v 0.1 0.6 -0.4
v 1.1 0.4 -0.4
v 1.1 0.6 -0.4
v 1.2 0.4 -0.4
v 1.2 0.6 -0.4
v 0 0 -0.5
v 0 0.4 -0.5
v 0.1 0.1 -0.5
v 0.1 0.4 -0.5
v 1.1 0.1 -0.5
v 1.1 0.4 -0.5
v 1.2 0 -0.5
v 1.2 0.4 -0.5
v 0 0 -0.1
v 1.2 0 -0.1
v 0 0 -0.5
v 1.2 0 -0.5
v 0 0.9 0
v 0.1 0.9 0
v 1.1 0.9 0
v 1.2 0.9 0
v 0 0.9 -0.1
v 0.1 0.9 -0.1
v 1.1 0.9 -0.1
v 1.2 0.9 -0.1
v 0.1 0.9 -0.2
v 1.1 0.9 -0.2
v 0.8 1.5 0
v 1 1.5 0
v 0.8 1.5 -0.1
v 1 1.5 -0.1
v 0.6 1.6 0
v 0.8 1.6 0
v 0.6 1.6 -0.1
v 0.8 1.6 -0.1
v 0.2 2.1 0
v 1 2.1 0
v 0.2 2.1 -0.1
v 1 2.1 -0.1
v 0.3 2.5 0
v 0.9 2.5 0
v 0.3 2.5 -0.1
v 0.9 2.5 -0.1
v 0 2.6 -0.2
v 0.1 2.6 -0.2
v 0.2 2.6 -0.2
v 1 2.6 -0.2
v 1.1 2.6 -0.2
v 1.2 2.6 -0.2
v 0 2.6 -0.3
v 0.1 2.6 -0.3
v 1.1 2.6 -0.3
v 1.2 2.6 -0.3
v 0.1 3 -0.1
v 1.1 3 -0.1
v 0.1 3 -0.2
v 1.1 3 -0.2
v 0 0.4 -0.4
v 0.1 0.4 -0.4
v 1.1 0.4 -0.4
v 1.2 0.4 -0.4
v 0 0.4 -0.5
v 0.1 0.4 -0.5
v 1.1 0.4 -0.5
v 1.2 0.4 -0.5
v 0.1 0.5 -0.1
v 1.1 0.5 -0.1
v 0.1 0.5 -0.2
v 1.1 0.5 -0.2
v 0 0.6 -0.3
v 0.1 0.6 -0.3
v 1.1 0.6 -0.3
v 1.2 0.6 -0.3
v 0 0.6 -0.4
v 0.1 0.6 -0.4
v 1.1 0.6 -0.4
v 1.2 0.6 -0.4
v 0 1 -0.2
v 0.1 1 -0.2
v 1.1 1 -0.2
v 1.2 1 -0.2
v 0 1 -0.3
v 0.1 1 -0.3
v 1.1 1 -0.3
v 1.2 1 -0.3
v 0.6 1.7 0
v 1 1.7 0
v 0.6 1.7 -0.1
v 1 1.7 -0.1
v 0.3 2.2 0
v 0.9 2.2 0
v 0.3 2.2 -0.1
v 0.9 2.2 -0.1
v 0.2 2.6 0
v 1 2.6 0
v 0.2 2.6 -0.1
v 1 2.6 -0.1
v 0.1 2.7 -0.1
v 1.1 2.7 -0.1
v 0.1 2.7 -0.2
v 1.1 2.7 -0.2
v 0 2.8 0
v 0.1 2.8 0
v 1.1 2.8 0
v 1.2 2.8 0
v 0 2.8 -0.1
v 0.1 2.8 -0.1
v 1.1 2.8 -0.1
v 1.2 2.8 -0.1
v 0 3.1 -0.1
v 1.2 3.1 -0.1
v 0 3.1 -0.3
v 1.2 3.1 -0.3

# faces
f 3/3/1 2/3/1 1/3/1
f 4/3/1 2/3/1 3/3/1
f 5/3/1 3/3/1 1/3/1
f 6/3/1 3/3/1 5/3/1
f 8/3/1 5/3/1 1/3/1
f 9/3/1 5/3/1 8/3/1
f 9/3/1 8/3/1 7/3/1
f 10/3/1 5/3/1 9/3/1
f 11/3/1 9/3/1 7/3/1
f 13/3/1 11/3/1 7/3/1
f 13/3/1 12/3/1 11/3/1
f 14/3/1 12/3/1 13/3/1
f 15/3/1 12/3/1 14/3/1
f 16/3/1 12/3/1 15/3/1
f 19/3/1 18/3/1 17/3/1
f 20/3/1 18/3/1 19/3/1
f 23/3/1 22/3/1 21/3/1
f 24/3/1 22/3/1 23/3/1
f 27/3/1 26/3/1 25/3/1
f 28/3/1 26/3/1 27/3/1
f 31/3/1 30/3/1 29/3/1
f 32/3/1 30/3/1 31/3/1
f 36/3/1 34/3/1 33/3/1
f 37/3/1 34/3/1 36/3/1
f 38/3/1 36/3/1 35/3/1
f 40/3/1 38/3/1 35/3/1
f 40/3/1 39/3/1 38/3/1
f 41/3/1 39/3/1 40/3/1
f 42/3/1 39/3/1 41/3/1
f 43/3/1 39/3/1 42/3/1
f 44/3/2 45/3/2 47/3/2
f 47/3/2 45/3/2 48/3/2
f 46/3/2 47/3/2 49/3/2
f 46/3/2 49/3/2 51/3/2
f 49/3/2 50/3/2 51/3/2
f 51/3/2 50/3/2 52/3/2
f 52/3/2 50/3/2 53/3/2
f 53/3/2 50/3/2 54/3/2
f 55/3/2 56/3/2 57/3/2
f 57/3/2 56/3/2 58/3/2
f 59/3/2 60/3/2 61/3/2
f 61/3/2 60/3/2 62/3/2
f 63/3/2 64/3/2 65/3/2
f 65/3/2 64/3/2 66/3/2
f 67/3/2 68/3/2 69/3/2
f 69/3/2 68/3/2 70/3/2
f 67/3/2 69/3/2 71/3/2
f 71/3/2 69/3/2 72/3/2
f 67/3/2 71/3/2 74/3/2
f 74/3/2 71/3/2 75/3/2
f 73/3/2 74/3/2 75/3/2
f 75/3/2 71/3/2 76/3/2
f 73/3/2 75/3/2 77/3/2
f 73/3/2 77/3/2 79/3/2
f 77/3/2 78/3/2 79/3/2
f 79/3/2 78/3/2 80/3/2
f 80/3/2 78/3/2 81/3/2
f 81/3/2 78/3/2 82/3/2
f 85/3/3 84/3/3 83/3/3
f 86/3/3 84/3/3 85/3/3
f 89/3/3 88/3/3 87/3/3
f 90/3/3 88/3/3 89/3/3
f 94/3/3 92/3/3 91/3/3
f 95/3/3 89/3/3 87/3/3
f 96/3/3 88/3/3 90/3/3
f 97/3/3 94/3/3 93/3/3
f 98/3/3 92/3/3 94/3/3
f 98/3/3 94/3/3 97/3/3
f 99/3/3 96/3/3 95/3/3
f 99/3/3 95/3/3 87/3/3
f 100/3/3 88/3/3 96/3/3
f 100/3/3 96/3/3 99/3/3
f 103/3/3 102/3/3 101/3/3
f 104/3/3 102/3/3 103/3/3
f 109/3/3 106/3/3 105/3/3
f 110/3/3 106/3/3 109/3/3
f 112/3/3 108/3/3 107/3/3
f 113/3/3 108/3/3 112/3/3
f 114/2/3 111/2/3 110/2/3
f 115/2/3 111/2/3 114/2/3
f 118/2/3 114/2/3 110/2/3
f 119/2/3 114/2/3 118/2/3
f 120/2/3 118/2/3 110/2/3
f 121/2/3 118/2/3 120/2/3
f 122/1/3 117/1/3 116/1/3
f 123/1/3 117/1/3 122/1/3
f 124/2/3 120/2/3 110/2/3
f 125/2/3 114/2/3 119/2/3
f 126/2/3 114/2/3 125/2/3
f 127/2/3 111/2/3 115/2/3
f 128/3/3 109/3/3 105/3/3
f 129/2/3 127/2/3 126/2/3
f 129/2/3 126/2/3 125/2/3
f 129/2/3 125/2/3 124/2/3
f 129/2/3 124/2/3 110/2/3
f 130/2/3 111/2/3 127/2/3
f 130/2/3 127/2/3 129/2/3
f 132/3/3 108/3/3 113/3/3
f 133/3/3 128/3/3 105/3/3
f 133/3/3 129/3/3 128/3/3
f 134/3/3 129/3/3 133/3/3
f 135/3/3 132/3/3 131/3/3
f 136/3/3 108/3/3 132/3/3
f 136/3/3 132/3/3 135/3/3
f 141/2/3 138/2/3 137/2/3
f 142/2/3 138/2/3 141/2/3
f 143/2/3 140/2/3 139/2/3
f 144/2/3 140/2/3 143/2/3
f 145/3/4 146/3/4 147/3/4
f 147/3/4 146/3/4 148/3/4
f 147/2/4 148/2/4 149/2/4
f 149/2/4 148/2/4 150/2/4
f 149/3/4 150/3/4 151/3/4
f 151/3/4 150/3/4 152/3/4
f 149/3/4 151/3/4 153/3/4
f 151/1/4 152/1/4 153/1/4
f 152/3/4 150/3/4 154/3/4
f 153/1/4 152/1/4 154/1/4
f 147/2/4 149/2/4 155/2/4
f 149/3/4 153/3/4 155/3/4
f 153/3/4 154/3/4 155/3/4
f 154/3/4 150/3/4 156/3/4
f 155/3/4 154/3/4 156/3/4
f 147/2/4 155/2/4 157/2/4
f 155/2/4 156/2/4 157/2/4
f 157/2/4 156/2/4 158/2/4
f 157/3/4 158/3/4 159/3/4
f 159/3/4 158/3/4 160/3/4
f 161/3/4 162/3/4 165/3/4
f 165/3/4 162/3/4 166/3/4
f 163/3/4 164/3/4 167/3/4
f 167/3/4 164/3/4 168/3/4
f 165/2/4 166/2/4 169/2/4
f 169/2/4 166/2/4 170/2/4
f 167/2/4 168/2/4 171/2/4
f 168/3/4 164/3/4 172/3/4
f 171/2/4 168/2/4 172/2/4
f 169/3/4 170/3/4 173/3/4
f 173/3/4 170/3/4 174/3/4
f 171/3/4 172/3/4 175/3/4
f 172/3/4 164/3/4 176/3/4
f 175/3/4 172/3/4 176/3/4
f 177/3/4 178/3/4 179/3/4
f 179/3/4 178/3/4 180/3/4
f 179/2/4 180/2/4 181/2/4
f 181/2/4 180/2/4 182/2/4
f 181/3/4 182/3/4 183/3/4
f 183/3/4 182/3/4 184/3/4
f 185/3/4 186/3/4 187/3/4
f 187/3/4 186/3/4 188/3/4
f 185/3/4 187/3/4 189/3/4
f 187/2/4 188/2/4 189/2/4
f 189/2/4 188/2/4 190/2/4
f 185/3/4 189/3/4 191/3/4
f 189/3/4 190/3/4 191/3/4
f 191/3/4 190/3/4 192/3/4
f 195/3/5 194/3/5 193/3/5
f 196/3/5 194/3/5 195/3/5
f 201/3/5 198/3/5 197/3/5
f 202/3/5 198/3/5 201/3/5
f 203/3/5 200/3/5 199/3/5
f 204/3/5 200/3/5 203/3/5
f 205/2/5 203/2/5 202/2/5
f 206/2/5 203/2/5 205/2/5
f 209/3/5 208/3/5 207/3/5
f 210/3/5 208/3/5 209/3/5
f 213/3/5 212/3/5 211/3/5
f 214/3/5 212/3/5 213/3/5
f 217/3/5 216/3/5 215/3/5
f 218/3/5 216/3/5 217/3/5
f 221/3/5 220/3/5 219/3/5
f 222/3/5 220/3/5 221/3/5
f 229/3/5 224/3/5 223/3/5
f 230/2/5 225/2/5 224/2/5
f 230/3/5 224/3/5 229/3/5
f 230/2/5 226/2/5 225/2/5
f 230/2/5 227/2/5 226/2/5
f 231/3/5 228/3/5 227/3/5
f 231/2/5 227/2/5 230/2/5
f 232/3/5 228/3/5 231/3/5
f 235/3/5 234/3/5 233/3/5
f 236/3/5 234/3/5 235/3/5
f 237/3/6 238/3/6 241/3/6
f 238/2/6 239/2/6 242/2/6
f 241/3/6 238/3/6 242/3/6
f 239/3/6 240/3/6 243/3/6
f 242/2/6 239/2/6 243/2/6
f 243/3/6 240/3/6 244/3/6
f 245/3/6 246/3/6 247/3/6
f 247/3/6 246/3/6 248/3/6
f 249/3/6 250/3/6 253/3/6
f 250/2/6 251/2/6 254/2/6
f 253/3/6 250/3/6 254/3/6
f 251/3/6 252/3/6 255/3/6
f 254/2/6 251/2/6 255/2/6
f 255/3/6 252/3/6 256/3/6
f 257/3/6 258/3/6 261/3/6
f 258/2/6 259/2/6 262/2/6
f 261/3/6 258/3/6 262/3/6
f 259/3/6 260/3/6 263/3/6
f 262/2/6 259/2/6 263/2/6
f 263/3/6 260/3/6 264/3/6
f 265/3/6 266/3/6 267/3/6
f 267/3/6 266/3/6 268/3/6
f 269/3/6 270/3/6 271/3/6
f 271/3/6 270/3/6 272/3/6
f 273/3/6 274/3/6 275/3/6
f 275/3/6 274/3/6 276/3/6
f 277/2/6 278/2/6 279/2/6
f 279/2/6 278/2/6 280/2/6
f 281/3/6 282/3/6 285/3/6
f 285/3/6 282/3/6 286/3/6
f 283/3/6 284/3/6 287/3/6
f 287/3/6 284/3/6 288/3/6
f 289/3/6 290/3/6 291/3/6
f 291/3/6 290/3/6 292/3/6
